<?xml version="1.0" encoding="utf-8"?>
<!-- Generator: Adobe Illustrator 16.0.0, SVG Export Plug-In . SVG Version: 6.00 Build 0)  -->
<!DOCTYPE svg PUBLIC "-//W3C//DTD SVG 1.1//EN" "http://www.w3.org/Graphics/SVG/1.1/DTD/svg11.dtd">
<svg version="1.1" xmlns="http://www.w3.org/2000/svg" xmlns:xlink="http://www.w3.org/1999/xlink" x="0px" y="0px" width="120px"
	 height="24px" viewBox="0 0 120 24" enable-background="new 0 0 120 24" xml:space="preserve">
<g id="Calque_1">
	<path fill="#4D4466" d="M1,12.001C1,12.001,5.046,4,12.04,4C18.96,4,23,11.964,23,11.964S20.225,20,12.003,20S1,12.001,1,12.001z"
		/>
	<circle fill="#FFFFFF" cx="12.003" cy="11.925" r="4.43"/>
</g>
<g id="Calque_4">
	
		<rect x="32.348" y="11.092" transform="matrix(-0.0072 1 -1 -0.0072 48.2264 -23.9454)" fill="#FFFFFF" width="7.303" height="1.75"/>
	<path fill="#4D4466" d="M25,12.001C25,12.001,29.046,4,36.04,4C42.96,4,47,11.964,47,11.964S44.225,20,36.003,20
		S25,12.001,25,12.001z"/>
	<circle fill="#FFFFFF" cx="36" cy="12" r="3.25"/>
	<rect x="32.438" y="11.125" transform="matrix(1 0.0073 -0.0073 1 0.088 -0.2607)" fill="#FFFFFF" width="7.067" height="1.75"/>
</g>
<g id="Calque_3">
	<path fill="#4D4466" d="M49,12.001C49,12.001,53.046,4,60.04,4C66.96,4,71,11.964,71,11.964S68.225,20,60.003,20
		S49,12.001,49,12.001z"/>
	<circle fill="#FFFFFF" cx="60" cy="12" r="2.25"/>
	
		<rect x="56" y="11.125" transform="matrix(0.9696 0.2448 -0.2448 0.9696 4.7625 -14.3215)" fill="#FFFFFF" width="7.999" height="1.75"/>
	
		<rect x="56" y="11.125" transform="matrix(-0.2449 0.9696 -0.9696 -0.2449 86.3266 -43.2343)" fill="#FFFFFF" width="8" height="1.75"/>
</g>
<g id="Calque_5">
	<path fill="#4D4466" d="M73,12.001C73,12.001,77.046,4,84.04,4C90.96,4,95,11.964,95,11.964S92.225,20,84.003,20
		S73,12.001,73,12.001z"/>
	<circle fill="#FFFFFF" cx="84" cy="12" r="1.75"/>
	
		<rect x="78.563" y="11.09" transform="matrix(0.872 0.4894 -0.4894 0.872 16.5965 -39.551)" fill="#FFFFFF" width="10.751" height="1.75"/>
	
		<rect x="78.664" y="11.222" transform="matrix(-0.4895 0.872 -0.872 -0.4895 135.587 -55.1823)" fill="#FFFFFF" width="10.563" height="1.749"/>
</g>
<g id="Calque_2">
	<path fill="#4D4466" d="M97,12.001c0,0,4.046-8.001,11.04-8.001c6.92,0,10.96,7.964,10.96,7.964S116.225,20,108.003,20
		S97,12.001,97,12.001z"/>
	
		<rect x="101.125" y="11.125" transform="matrix(0.7071 0.7071 -0.7071 0.7071 40.1086 -72.8307)" fill="#FFFFFF" width="13.688" height="1.75"/>
	
		<rect x="101.125" y="11.125" transform="matrix(-0.7071 0.7071 -0.7071 -0.7071 192.7995 -55.8602)" fill="#FFFFFF" width="13.688" height="1.75"/>
</g>
</svg>
