<?xml version="1.0" encoding="utf-8"?>
<!-- Generator: Adobe Illustrator 16.0.0, SVG Export Plug-In . SVG Version: 6.00 Build 0)  -->
<!DOCTYPE svg PUBLIC "-//W3C//DTD SVG 1.1//EN" "http://www.w3.org/Graphics/SVG/1.1/DTD/svg11.dtd">
<svg version="1.1" xmlns="http://www.w3.org/2000/svg" xmlns:xlink="http://www.w3.org/1999/xlink" x="0px" y="0px" width="288px"
	 height="288px" viewBox="-143.5 72.5 288 288" enable-background="new -143.5 72.5 288 288" xml:space="preserve">
<g id="circle">
	<g id="facebook_1_">
		<circle fill="#3C5A9B" cx="-107.5" cy="252.5" r="36"/>
		<path fill="#FFFFFF" d="M-101.091,237.763c2.198,0,5.103,0,5.103,0v-7.614c0,0-3.062,0-7.222,0c-4.161,0-9.577,2.669-9.577,10.439
			c0,1.453,0,3.567,0,6.045h-6.908v7.889h6.908c0,9.824,0,20.527,0,20.527h3.062h2.434h2.747c0,0,0-11.088,0-20.527h6.869
			l1.138-7.889h-8.007c0-2.593,0-4.466,0-5.024C-104.545,239.018-103.289,237.763-101.091,237.763z"/>
	</g>
	<g id="youtube_1_">
		<circle fill="#F03232" cx="36.5" cy="324.5" r="36"/>
		<path fill="#FFFFFF" d="M34.132,316.498c0,0.881,0.253,1.585,0.761,2.107c0.506,0.523,1.185,0.784,2.029,0.784
			c0.878,0,1.567-0.254,2.069-0.759c0.499-0.509,0.751-1.205,0.751-2.098v-5.369c0-0.793-0.255-1.44-0.765-1.942
			c-0.512-0.503-1.168-0.757-1.968-0.757c-0.878,0-1.578,0.241-2.097,0.716c-0.521,0.479-0.783,1.12-0.783,1.925L34.132,316.498z
			 M36.12,311.028c0-0.229,0.074-0.411,0.222-0.552c0.147-0.138,0.339-0.208,0.575-0.208c0.254,0,0.462,0.07,0.617,0.208
			c0.158,0.141,0.237,0.323,0.237,0.552v5.662c0,0.28-0.076,0.499-0.229,0.658c-0.156,0.16-0.364,0.24-0.626,0.24
			c-0.256,0-0.451-0.079-0.59-0.234s-0.207-0.377-0.207-0.664V311.028z M42.734,319.275c0.362,0,0.735-0.109,1.122-0.331
			c0.385-0.22,0.756-0.544,1.111-0.966v1.148h1.935v-10.398h-1.935v7.893c-0.183,0.228-0.38,0.414-0.596,0.56
			c-0.22,0.146-0.398,0.22-0.54,0.22c-0.183,0-0.313-0.055-0.393-0.166c-0.081-0.107-0.122-0.287-0.122-0.534v-7.972h-1.933v8.692
			c0,0.618,0.112,1.082,0.338,1.393C41.95,319.122,42.287,319.275,42.734,319.275z M52.567,326.735c0-2.511-2.06-4.547-4.601-4.547
			c-3.445-0.144-6.966-0.212-10.554-0.212h-1.126c-3.587,0-7.109,0.068-10.556,0.212c-2.54,0-4.598,2.036-4.598,4.547
			c-0.154,1.99-0.222,3.98-0.216,5.966c-0.006,1.991,0.062,3.979,0.216,5.971c0,2.51,2.058,4.547,4.598,4.547
			c3.625,0.153,7.336,0.217,11.12,0.213c3.78,0.004,7.49-0.06,11.115-0.213c2.541,0,4.601-2.037,4.601-4.547
			c0.154-1.992,0.218-3.979,0.216-5.971C52.785,330.716,52.722,328.726,52.567,326.735z M27.816,339.904h-2.176v-12.052h-2.253
			v-2.047h6.682v2.047h-2.253V339.904z M35.562,339.904h-1.933v-1.15c-0.356,0.424-0.727,0.745-1.11,0.968
			c-0.387,0.219-0.763,0.331-1.124,0.331c-0.446,0-0.782-0.155-1.009-0.465c-0.23-0.309-0.34-0.773-0.34-1.392v-8.691h1.932v7.97
			c0,0.246,0.04,0.425,0.123,0.535c0.08,0.11,0.212,0.167,0.393,0.167c0.14,0,0.319-0.073,0.539-0.22
			c0.219-0.146,0.416-0.333,0.597-0.561v-7.892h1.933V339.904z M43.004,337.749c0,0.737-0.15,1.304-0.453,1.696
			c-0.306,0.395-0.742,0.588-1.314,0.588c-0.378,0-0.714-0.075-1.013-0.229c-0.295-0.151-0.569-0.384-0.822-0.7v0.801h-1.952
			v-14.099h1.952v4.54c0.261-0.319,0.537-0.56,0.828-0.725c0.293-0.166,0.589-0.248,0.891-0.248c0.61,0,1.078,0.222,1.401,0.666
			c0.32,0.443,0.482,1.091,0.482,1.938V337.749z M50.149,334.947h-3.697v1.963c0,0.545,0.063,0.924,0.191,1.135
			c0.128,0.213,0.346,0.318,0.651,0.318c0.321,0,0.548-0.09,0.674-0.27c0.129-0.179,0.191-0.57,0.191-1.184v-0.725h1.989v0.781
			c0,1.066-0.242,1.869-0.726,2.41c-0.485,0.538-1.21,0.807-2.171,0.807c-0.865,0-1.547-0.286-2.045-0.857
			c-0.497-0.572-0.746-1.357-0.746-2.359V332.3c0-0.903,0.272-1.639,0.82-2.206c0.547-0.569,1.251-0.852,2.116-0.852
			c0.884,0,1.563,0.263,2.039,0.789c0.476,0.525,0.712,1.282,0.712,2.269V334.947z M47.315,331.062c-0.308,0-0.528,0.094-0.66,0.281
			c-0.135,0.189-0.203,0.501-0.203,0.938v1.052h1.708v-1.052c0-0.437-0.067-0.748-0.201-0.938
			C47.823,331.155,47.612,331.062,47.315,331.062z M29.519,319.127h2.177v-5.849l2.534-8.247h-2.211l-1.348,5.635h-0.137
			l-1.413-5.635h-2.195l2.593,8.509V319.127z M40.209,331.023c-0.14,0-0.275,0.037-0.409,0.104
			c-0.135,0.068-0.268,0.172-0.398,0.316v6.479c0.157,0.168,0.311,0.29,0.457,0.364c0.147,0.076,0.303,0.113,0.466,0.113
			c0.236,0,0.413-0.073,0.523-0.219c0.111-0.145,0.167-0.386,0.167-0.718v-5.367c0-0.352-0.068-0.616-0.208-0.8
			C40.669,331.115,40.469,331.023,40.209,331.023z"/>
	</g>
	<g id="linkedin_2_">
		<circle fill="#0087AF" cx="-107.5" cy="324.5" r="36"/>
		<path fill="#FFFFFF" d="M-117.234,340.771h-7.296v-23.568h7.296V340.771z M-120.917,314.116c-2.383,0-4.314-1.946-4.314-4.35
			c0-2.4,1.931-4.348,4.314-4.348s4.314,1.947,4.314,4.348C-116.603,312.17-118.534,314.116-120.917,314.116z M-89.896,340.771
			h-7.26c0,0,0-8.978,0-12.373c0-3.392-1.289-5.286-3.972-5.286c-2.92,0-4.445,1.973-4.445,5.286c0,3.631,0,12.373,0,12.373h-6.997
			v-23.568h6.997v3.174c0,0,2.104-3.894,7.103-3.894c4.997,0,8.575,3.053,8.575,9.365S-89.896,340.771-89.896,340.771z"/>
	</g>
	<g id="pinterest_1_">
		<circle fill="#CB2027" cx="36.5" cy="252.5" r="36"/>
		<path fill="#FFFFFF" d="M39.987,261.954c-2.65,0-5.144-1.434-5.997-3.061c0,0-1.426,5.655-1.727,6.747
			c-1.063,3.858-4.189,7.719-4.432,8.034c-0.17,0.22-0.544,0.15-0.584-0.139c-0.066-0.492-0.863-5.36,0.074-9.331
			c0.471-1.993,3.158-13.376,3.158-13.376s-0.785-1.568-0.785-3.885c0-3.638,2.109-6.354,4.736-6.354
			c2.231,0,3.311,1.677,3.311,3.686c0,2.245-1.43,5.601-2.168,8.711c-0.615,2.605,1.307,4.729,3.874,4.729
			c4.65,0,7.783-5.975,7.783-13.053c0-5.38-3.622-9.407-10.214-9.407c-7.445,0-12.087,5.553-12.087,11.757
			c0,2.139,0.632,3.648,1.621,4.815c0.454,0.536,0.517,0.752,0.353,1.367c-0.119,0.451-0.388,1.54-0.5,1.971
			c-0.164,0.622-0.668,0.844-1.23,0.613c-3.428-1.398-5.027-5.155-5.027-9.378c0-6.973,5.883-15.335,17.545-15.335
			c9.373,0,15.541,6.78,15.541,14.063C53.232,254.76,47.879,261.954,39.987,261.954z"/>
	</g>
	<g id="github">
		<circle fill="#2D2D37" cx="-35.5" cy="324.5" r="36"/>
		<g>
			<path fill="#FFFFFF" d="M-35.5,301.701c-12.592,0-22.8,10.207-22.8,22.799c0,9.91,6.324,18.344,15.156,21.486
				c0.044,0.016,0.202,0.07,0.238,0.082c0.13,0.041,0.27,0.064,0.415,0.064c0.741,0,1.341-0.602,1.341-1.342
				c0-0.035-0.003-0.07-0.005-0.105h0.005c0-1.205,0-2.74,0-3.965c-1.448,0.297-3.649,0.576-4.844,0
				c-1.553-0.746-2.329-1.705-3.086-3.592c-0.922-2.295-3.063-2.918-3.144-3.324c-0.082-0.406,2.257-1.008,3.469,0.379
				s2.438,4.174,5.041,3.902c1.278-0.133,2.11-0.332,2.627-0.5c0.105-0.902,0.388-2.006,1.142-2.793
				c-6.12-1.012-10.189-4.307-10.189-10.764c0-2.932,0.841-5.211,2.331-6.922c-0.246-1.402-0.67-4.664,0.452-5.814
				c0,0,1.589-0.979,6.14,2.227c1.698-0.393,3.58-0.584,5.601-0.598v-0.004c0.038,0,0.073,0.002,0.111,0.002
				s0.074-0.002,0.111-0.002v0.004c2.021,0.014,3.903,0.205,5.601,0.598c4.551-3.205,6.14-2.227,6.14-2.227
				c1.122,1.15,0.698,4.412,0.452,5.814c1.49,1.711,2.33,3.99,2.33,6.922c0,6.457-4.069,9.752-10.189,10.764
				c1.172,1.223,1.205,3.207,1.205,4.016c0,0.779,0,5.947,0,5.982c0,0.74,0.602,1.342,1.342,1.342c0.109,0,0.217-0.014,0.318-0.039
				c0.023-0.006,0.117-0.031,0.141-0.039c8.934-3.088,15.35-11.572,15.35-21.555C-12.7,311.908-22.908,301.701-35.5,301.701z"/>
		</g>
	</g>
	<g id="instagram_1_">
		<circle fill="#D5007F" cx="108.5" cy="252.5" r="36"/>
		<g>
			<path fill="#FFFFFF" d="M108.5,242.575c-5.473,0-9.926,4.452-9.926,9.925s4.453,9.926,9.926,9.926s9.924-4.453,9.924-9.926
				S113.973,242.575,108.5,242.575z M108.5,258.91c-3.535,0-6.41-2.876-6.41-6.41s2.875-6.41,6.41-6.41
				c3.533,0,6.409,2.876,6.409,6.41S112.033,258.91,108.5,258.91z"/>
			<circle fill="#FFFFFF" cx="118.733" cy="242.309" r="2.315"/>
			<path fill="#FFFFFF" d="M116.732,233.3h-16.465c-6.049,0-10.969,4.92-10.969,10.968v16.465c0,6.048,4.92,10.968,10.969,10.968
				h16.465c6.047,0,10.967-4.92,10.967-10.968v-16.465C127.699,238.22,122.779,233.3,116.732,233.3z M124.184,260.732
				c0,4.108-3.343,7.452-7.451,7.452h-16.465c-4.109,0-7.453-3.344-7.453-7.452v-16.465c0-4.109,3.344-7.452,7.453-7.452h16.465
				c4.108,0,7.451,3.343,7.451,7.452V260.732z"/>
		</g>
	</g>
	<g id="google_plus">
		<circle fill="#F03232" cx="108.5" cy="324.5" r="36"/>
		<path fill="#FFFFFF" d="M99.815,327.785h9.611c-1.254,4.312-5.029,7.365-9.611,7.365c-5.803,0-10.525-4.723-10.525-10.526
			s4.723-10.525,10.525-10.525c2.508,0,4.937,0.896,6.838,2.522l4.146-4.845c-3.057-2.615-6.957-4.055-10.984-4.055
			c-9.32,0-16.902,7.583-16.902,16.902c0,9.32,7.582,16.903,16.902,16.903c9.215,0,16.434-7.425,16.434-16.903v-2.451H99.815
			V327.785z M129.376,322.2v-4.688h-4.846v4.688h-4.689v4.848h4.689v4.688h4.846v-4.688h4.689V322.2H129.376z"/>
	</g>
	<g id="twitter_1_">
		<circle fill="#1AB2E8" cx="-35.5" cy="252.5" r="36"/>
		<path fill="#FFFFFF" d="M-21.092,245.037c0.467,10.389-7.281,21.972-20.993,21.972c-4.171,0-8.055-1.223-11.322-3.32
			c3.918,0.463,7.828-0.623,10.935-3.058c-3.233-0.059-5.959-2.194-6.9-5.13c1.157,0.223,2.296,0.158,3.335-0.126
			c-3.552-0.713-6.005-3.914-5.924-7.335c0.997,0.554,2.135,0.886,3.345,0.923c-3.289-2.197-4.22-6.54-2.286-9.86
			c3.644,4.469,9.086,7.41,15.224,7.717c-1.076-4.62,2.428-9.068,7.195-9.068c2.125,0,4.043,0.896,5.391,2.332
			c1.682-0.331,3.262-0.946,4.691-1.792c-0.553,1.724-1.725,3.173-3.248,4.087c1.493-0.179,2.917-0.576,4.24-1.164
			C-18.396,242.696-19.648,243.997-21.092,245.037z"/>
	</g>
</g>
<g id="square">
	<g id="linkedin_1_">
		<rect x="-143.5" y="144.5" fill="#017BB6" width="72" height="72"/>
		<path fill="#FFFFFF" d="M-131.18,172.295h10.159v32.635h-10.159V172.295z M-126.098,156.07c3.248,0,5.881,2.639,5.881,5.881
			c0,3.246-2.634,5.883-5.881,5.883c-3.26,0-5.888-2.637-5.888-5.883C-131.985,158.709-129.357,156.07-126.098,156.07"/>
		<path fill="#FFFFFF" d="M-114.653,172.295h9.729v4.46h0.138c1.353-2.567,4.666-5.271,9.604-5.271
			c10.269,0,12.168,6.756,12.168,15.545v17.902h-10.141v-15.867c0-3.789-0.074-8.657-5.275-8.657c-5.281,0-6.086,4.122-6.086,8.377
			v16.147h-10.137V172.295z"/>
	</g>
	<g id="youtube">
		<rect x="0.5" y="144.5" fill="#CD332D" width="72" height="72"/>
		<path fill="#FFFFFF" d="M31.486,151.534h-3.277l-2.213,8.504l-2.302-8.504H20.28c0.683,2.006,1.396,4.024,2.08,6.034
			c1.04,3.02,1.688,5.296,1.981,6.852v8.771h3.244v-8.771L31.486,151.534z M40.155,167.965v-5.652c0-1.725-0.296-2.984-0.909-3.803
			c-0.811-1.101-1.947-1.654-3.412-1.654c-1.457,0-2.597,0.554-3.405,1.654c-0.622,0.817-0.915,2.078-0.915,3.803v5.652
			c0,1.717,0.293,2.987,0.915,3.797c0.809,1.1,1.948,1.652,3.405,1.652c1.465,0,2.602-0.553,3.412-1.652
			C39.859,170.952,40.155,169.682,40.155,167.965z M37.229,168.518c0,1.492-0.451,2.239-1.396,2.239
			c-0.943,0-1.396-0.747-1.396-2.239v-6.791c0-1.494,0.453-2.236,1.396-2.236s1.396,0.742,1.396,2.236V168.518z M50.971,173.191
			v-16.139h-2.926v12.336c-0.649,0.916-1.264,1.368-1.848,1.368c-0.394,0-0.621-0.231-0.685-0.687
			c-0.036-0.094-0.036-0.451-0.036-1.137v-11.881h-2.916v12.762c0,1.138,0.1,1.912,0.26,2.398c0.291,0.818,0.939,1.202,1.883,1.202
			c1.066,0,2.178-0.649,3.342-1.985v1.762H50.971z"/>
		<path fill="#FFFFFF" d="M60.443,192.777c0,3.733-0.003,7.695-0.84,11.32c-0.585,2.545-2.667,4.424-5.175,4.705
			c-5.938,0.663-11.949,0.666-17.931,0.663c-5.983,0.003-11.994,0-17.932-0.663c-2.508-0.281-4.59-2.16-5.175-4.705
			c-0.834-3.625-0.834-7.587-0.834-11.32c0-3.736,0.008-7.69,0.844-11.32c0.585-2.544,2.667-4.423,5.175-4.703
			c5.938-0.665,11.948-0.666,17.93-0.665c5.981-0.001,11.994,0,17.933,0.665c2.508,0.279,4.59,2.159,5.174,4.703
			C60.446,185.087,60.443,189.041,60.443,192.777z"/>
		<path fill="#CD332D" d="M26.217,184.723v-3.02H16.125v3.02h3.405v18.416h3.218v-18.416H26.217z M32.063,203.139v-1.742
			c-1.147,1.319-2.242,1.963-3.308,1.963c-0.932,0-1.575-0.379-1.862-1.188c-0.16-0.485-0.257-1.246-0.257-2.375v-12.628h2.893
			v11.758c0,0.678,0,1.032,0.026,1.125c0.071,0.448,0.29,0.676,0.677,0.676c0.581,0,1.189-0.449,1.83-1.353v-12.207h2.896v15.972
			H32.063z M43.06,198.574c0,1.441-0.425,2.152-1.259,2.152c-0.477,0-0.959-0.229-1.443-0.711v-9.736
			c0.484-0.475,0.969-0.703,1.443-0.703c0.834,0,1.259,0.74,1.259,2.18V198.574z M45.953,198.348v-6.363
			c0-1.51-0.1-2.567-0.293-3.211c-0.386-1.195-1.16-1.801-2.313-1.801c-1.063,0-2.055,0.582-2.99,1.73v-7h-2.893v21.436h2.893
			v-1.548c0.969,1.195,1.96,1.769,2.99,1.769c1.152,0,1.927-0.606,2.313-1.795C45.854,200.889,45.953,199.823,45.953,198.348z
			 M53.981,193.271h-2.894v-1.478c0-1.478,0.484-2.217,1.453-2.217c0.955,0,1.44,0.739,1.44,2.217V193.271L53.981,193.271z
			 M56.877,198.027v-0.42h-2.955c0,1.162-0.035,1.801-0.063,1.957c-0.167,0.773-0.583,1.162-1.295,1.162
			c-0.992,0-1.477-0.735-1.477-2.216v-2.829h5.789v-3.308c0-1.708-0.293-2.957-0.897-3.765c-0.812-1.094-1.962-1.637-3.414-1.637
			c-1.476,0-2.631,0.541-3.465,1.637c-0.616,0.808-0.894,2.056-0.894,3.765v5.594c0,1.694,0.313,2.957,0.928,3.753
			c0.836,1.092,1.986,1.637,3.504,1.637c1.511,0,2.697-0.572,3.5-1.73c0.349-0.512,0.576-1.094,0.674-1.732
			C56.838,199.602,56.877,198.958,56.877,198.027z"/>
	</g>
	<g id="pinterest">
		<rect x="0.5" y="72.5" fill="#CA2128" width="72" height="72"/>
		<path fill="#FFFFFF" d="M36.5,82.458c-14.38,0-26.042,11.658-26.042,26.042c0,10.664,6.412,19.825,15.589,23.854
			c-0.074-1.821-0.013-4.004,0.452-5.98c0.502-2.117,3.353-14.193,3.353-14.193s-0.834-1.66-0.834-4.118
			c0-3.857,2.239-6.74,5.025-6.74c2.367,0,3.512,1.777,3.512,3.908c0,2.381-1.521,5.943-2.3,9.241
			c-0.653,2.764,1.386,5.016,4.106,5.016c4.936,0,8.258-6.334,8.258-13.845c0-5.705-3.844-9.977-10.834-9.977
			c-7.898,0-12.821,5.889-12.821,12.468c0,2.271,0.67,3.871,1.718,5.109c0.482,0.569,0.551,0.797,0.373,1.45
			c-0.121,0.481-0.408,1.634-0.529,2.09c-0.174,0.664-0.707,0.896-1.303,0.652c-3.639-1.482-5.332-5.468-5.332-9.948
			c0-7.397,6.236-16.269,18.612-16.269c9.94,0,16.487,7.194,16.487,14.919c0,10.216-5.684,17.847-14.055,17.847
			c-2.813,0-5.457-1.521-6.36-3.243c0,0-1.515,6-1.832,7.157c-0.554,2.006-1.634,4.016-2.623,5.578
			c2.341,0.69,4.815,1.067,7.38,1.067c14.381,0,26.04-11.658,26.04-26.042S50.881,82.458,36.5,82.458z"/>
	</g>
	<g id="linkedin">
		<rect x="-71.499" y="144.5" fill="#181617" width="71.998" height="72"/>
		<path fill="#FFFFFF" d="M-35.5,156.109c-13.813,0-25.01,11.197-25.01,25.015c0,11.045,7.164,20.418,17.104,23.729
			c1.252,0.228,1.708-0.547,1.708-1.209c0-0.593-0.02-2.166-0.034-4.254c-6.957,1.512-8.424-3.352-8.424-3.352
			c-1.138-2.889-2.777-3.655-2.777-3.655c-2.271-1.555,0.172-1.522,0.172-1.522c2.513,0.177,3.832,2.576,3.832,2.576
			c2.229,3.824,5.854,2.715,7.279,2.078c0.226-1.619,0.871-2.716,1.586-3.343c-5.555-0.629-11.393-2.78-11.393-12.362
			c0-2.726,0.977-4.961,2.572-6.707c-0.256-0.635-1.113-3.177,0.246-6.621c0,0,2.098-0.672,6.878,2.565
			c1.995-0.556,4.137-0.834,6.262-0.843c2.125,0.009,4.265,0.287,6.259,0.843c4.778-3.237,6.875-2.565,6.875-2.565
			c1.362,3.444,0.506,5.985,0.246,6.621c1.6,1.746,2.572,3.981,2.572,6.707c0,9.61-5.85,11.725-11.421,12.345
			c0.897,0.771,1.698,2.295,1.698,4.629c0,3.344-0.03,6.041-0.03,6.86c0,0.668,0.452,1.444,1.72,1.201
			c9.928-3.311,17.088-12.68,17.088-23.722C-10.49,167.307-21.684,156.109-35.5,156.109"/>
	</g>
	<g id="facebook">
		<rect x="-143.5" y="72.5" fill="#3B5999" width="72" height="72"/>
		<path fill="#FFFFFF" d="M-80.707,115.602l1.421-11.021h-10.913v-7.036c0-3.191,0.89-5.365,5.464-5.365l5.832-0.004v-9.857
			c-1.007-0.135-4.468-0.435-8.502-0.435c-8.415,0-14.172,5.138-14.172,14.57v8.126h-9.518V115.6h9.518v28.277h11.378v-28.275
			H-80.707z"/>
	</g>
	<g id="instagram">
		<rect x="72.5" y="72.5" fill="#D5007F" width="72" height="72"/>
		<path fill="#FFFFFF" d="M90.914,84.839h35.176c3.343,0,6.074,2.733,6.074,6.075v35.176c0,3.342-2.731,6.072-6.074,6.072H90.914
			c-3.343,0-6.077-2.73-6.077-6.072V90.914C84.837,87.572,87.571,84.839,90.914,84.839z M119.313,90.095
			c-1.174,0-2.131,0.961-2.131,2.133v5.098c0,1.173,0.957,2.131,2.131,2.131h5.35c1.171,0,2.13-0.958,2.13-2.131v-5.098
			c0-1.172-0.959-2.133-2.13-2.133H119.313z M126.813,104.851h-4.164c0.396,1.29,0.608,2.65,0.608,4.063
			c0,7.869-6.588,14.252-14.713,14.252c-8.123,0-14.711-6.383-14.711-14.252c0-1.414,0.216-2.774,0.608-4.063h-4.344v19.992
			c0,1.036,0.846,1.878,1.879,1.878h32.957c1.035,0,1.879-0.843,1.879-1.878V104.851z M108.545,99.189
			c-5.247,0-9.503,4.121-9.503,9.211c0,5.084,4.256,9.209,9.503,9.209c5.25,0,9.506-4.125,9.506-9.209
			C118.051,103.311,113.794,99.189,108.545,99.189z"/>
	</g>
	<g id="googleplus">
		<rect x="72.5" y="144.5" fill="#CC3732" width="72" height="72"/>
		<path fill="#FFFFFF" d="M107.354,155.784c0.452,0.278,0.957,0.687,1.521,1.223c0.539,0.56,1.066,1.251,1.586,2.065
			c0.496,0.77,0.936,1.677,1.318,2.729c0.316,1.049,0.473,2.273,0.473,3.674c-0.041,2.563-0.607,4.615-1.699,6.156
			c-0.533,0.747-1.1,1.434-1.697,2.064c-0.664,0.628-1.368,1.271-2.113,1.924c-0.429,0.441-0.822,0.943-1.186,1.505
			c-0.428,0.583-0.641,1.258-0.641,2.026c0,0.75,0.219,1.367,0.658,1.855c0.37,0.467,0.732,0.876,1.084,1.227l2.434,1.992
			c1.512,1.24,2.838,2.599,3.977,4.092c1.074,1.518,1.633,3.5,1.68,5.947c0,3.475-1.537,6.553-4.605,9.237
			c-3.178,2.776-7.771,4.208-13.773,4.304c-5.022-0.048-8.772-1.119-11.25-3.212c-2.498-1.957-3.75-4.296-3.75-7.02
			c0-1.325,0.404-2.808,1.223-4.437c0.785-1.628,2.216-3.061,4.285-4.294c2.319-1.323,4.761-2.211,7.316-2.653
			c2.533-0.371,4.635-0.582,6.309-0.627c-0.519-0.682-0.979-1.408-1.383-2.182c-0.473-0.75-0.707-1.654-0.707-2.707
			c0-0.632,0.088-1.163,0.268-1.583c0.158-0.448,0.305-0.854,0.438-1.231c-0.813,0.093-1.584,0.14-2.303,0.14
			c-3.818-0.047-6.729-1.249-8.73-3.603c-2.098-2.195-3.146-4.748-3.146-7.662c0-3.523,1.483-6.715,4.455-9.584
			c2.038-1.678,4.157-2.772,6.353-3.289c2.178-0.442,4.215-0.664,6.116-0.664h14.343l-4.43,2.586L107.354,155.784L107.354,155.784z
			 M110.123,197.064c0-1.82-0.594-3.404-1.778-4.756c-1.259-1.283-3.22-2.857-5.892-4.726c-0.459-0.048-0.994-0.069-1.611-0.069
			c-0.364-0.044-1.301,0-2.809,0.139c-1.482,0.212-3.003,0.549-4.557,1.016c-0.364,0.141-0.877,0.352-1.538,0.631
			c-0.663,0.303-1.336,0.735-2.022,1.295c-0.664,0.582-1.222,1.305-1.677,2.17c-0.528,0.91-0.788,2.006-0.788,3.288
			c0,2.521,1.139,4.597,3.424,6.228c2.17,1.633,5.138,2.473,8.905,2.521c3.38-0.048,5.962-0.794,7.739-2.239
			C109.256,201.135,110.123,199.307,110.123,197.064z M100.125,176.044c1.889-0.071,3.461-0.75,4.72-2.036
			c0.608-0.91,0.997-1.846,1.171-2.804c0.104-0.96,0.156-1.765,0.156-2.419c0-2.826-0.723-5.68-2.17-8.553
			c-0.68-1.377-1.571-2.5-2.678-3.364c-1.133-0.815-2.433-1.249-3.9-1.296c-1.943,0.047-3.56,0.83-4.848,2.349
			c-1.087,1.59-1.607,3.365-1.557,5.329c0,2.593,0.755,5.29,2.273,8.096c0.736,1.307,1.682,2.418,2.848,3.328
			C97.303,175.589,98.631,176.044,100.125,176.044z"/>
		<polygon fill="#FFFFFF" points="135.635,161.029 128.109,161.029 128.109,153.503 124.463,153.503 124.463,161.029 
			116.939,161.029 116.939,164.676 124.463,164.676 124.463,172.2 128.109,172.2 128.109,164.676 135.635,164.676 		"/>
	</g>
	<g id="twitter">
		<rect x="-71.5" y="72.5" fill="#2AA8E0" width="72" height="72"/>
		<path fill="#FFFFFF" d="M-11.501,93.612c-1.767,0.784-3.665,1.314-5.656,1.551c2.033-1.219,3.597-3.147,4.331-5.448
			c-1.9,1.129-4.007,1.949-6.251,2.391c-1.798-1.916-4.358-3.111-7.19-3.111c-5.438,0-9.848,4.41-9.848,9.847
			c0,0.773,0.087,1.523,0.254,2.244c-8.184-0.41-15.439-4.33-20.297-10.291c-0.847,1.458-1.333,3.148-1.333,4.953
			c0,3.416,1.738,6.432,4.379,8.196c-1.613-0.05-3.131-0.495-4.459-1.232v0.124c0,4.771,3.395,8.751,7.898,9.658
			c-0.825,0.223-1.698,0.346-2.595,0.346c-0.633,0-1.252-0.063-1.852-0.178c1.252,3.912,4.889,6.758,9.198,6.84
			c-3.368,2.643-7.614,4.215-12.231,4.215c-0.793,0-1.577-0.047-2.347-0.137c4.358,2.791,9.534,4.422,15.098,4.422
			c18.112,0,28.017-15.002,28.017-28.018c0-0.425-0.012-0.851-0.027-1.276C-14.492,97.324-12.824,95.588-11.501,93.612z"/>
	</g>
</g>
</svg>
